<svg xmlns="http://www.w3.org/2000/svg" xmlns:svg="http://www.w3.org/2000/svg" xmlns:xlink="http://www.w3.org/1999/xlink" id="svg18" width="100" height="100" version="1.1" viewBox="0 0 100 100"><metadata id="metadata22"/><title id="title2">eclispe-che</title><desc id="desc4">Created with Sketch.</desc><defs id="defs7"><path id="path-1" d="M50.0004412,4.04252804e-14 C22.3871247,4.04252804e-14 0,22.3848726 0,49.9995588 C0,77.6133626 22.3871247,100 50.0004412,100 C77.6137577,100 100,77.6133626 100,49.9995588 C100,22.3848726 77.6128753,3.55271368e-14 50.0004412,4.04252804e-14 Z"/></defs><g id="layer1"><g style="fill:#fff;fill-opacity:1;fill-rule:evenodd;stroke:none;stroke-width:1;stroke-opacity:1" id="Page-1"><g id="eclispe-che" style="fill:#fff;fill-opacity:1;stroke:none;stroke-opacity:1"><g id="path3023-path" style="fill:#fff;fill-opacity:1;stroke:none;stroke-opacity:1"><use id="use9" width="100%" height="100%" x="0" y="0" xlink:href="#path-1" style="fill:#fff;fill-opacity:1;fill-rule:evenodd;stroke:none;stroke-opacity:1"/><path id="path11" d="M 50.000441,0.5 C 22.662621,0.5 0.5,22.661661 0.5,49.999559 0.5,77.337051 22.663098,99.5 50.000441,99.5 77.337613,99.5 99.5,77.337222 99.5,49.999559 99.5,22.661796 77.337514,0.5 50.000441,0.5 Z" style="fill:#fff;fill-opacity:1;stroke:none;stroke-width:1;stroke-opacity:1"/></g></g></g></g></svg>